<?xml version="1.0" standalone="no"?>
<!DOCTYPE svg PUBLIC "-//W3C//DTD SVG 20010904//EN"
 "http://www.w3.org/TR/2001/REC-SVG-20010904/DTD/svg10.dtd">
<svg version="1.0" xmlns="http://www.w3.org/2000/svg"
 width="460.000000pt" height="460.000000pt" viewBox="0 0 460.000000 460.000000"
 preserveAspectRatio="xMidYMid meet">
<metadata>
Created by potrace 1.14, written by Peter Selinger 2001-2017
</metadata>
<g transform="translate(0.000000,460.000000) scale(0.100000,-0.100000)"
fill="#000000" stroke="none">
<path d="M2139 4565 c-2 -1 -33 -6 -69 -10 -97 -10 -108 -11 -200 -29 -245
-46 -514 -150 -740 -286 -93 -56 -209 -136 -250 -172 -8 -7 -30 -26 -50 -41
-70 -56 -218 -206 -295 -298 -200 -242 -388 -621 -451 -909 -34 -152 -37 -171
-53 -305 -9 -70 -7 -448 2 -495 3 -14 11 -59 17 -100 16 -96 18 -108 25 -130
3 -10 7 -27 9 -37 36 -184 178 -517 303 -708 126 -193 319 -407 473 -525 25
-19 47 -38 50 -41 15 -17 128 -94 220 -149 223 -135 490 -239 730 -285 14 -3
36 -7 50 -10 25 -5 55 -9 190 -24 41 -5 158 -7 260 -5 197 4 226 6 350 29 14
3 39 7 55 10 102 17 331 86 438 132 206 88 491 264 612 378 11 11 50 47 86 80
65 61 197 207 234 259 11 15 25 33 31 40 38 41 147 224 209 351 88 179 145
343 187 537 30 138 31 152 34 428 3 296 -1 353 -44 545 -65 294 -223 627 -413
875 -119 154 -217 254 -413 419 -57 47 -254 171 -356 224 -216 112 -453 190
-690 227 -41 6 -86 14 -100 17 -28 5 -436 14 -441 8z"/>
</g>
</svg>
